# xmcd
#
# Track frame offsets: 
#        150
#        10232
#        20352
#        31105
#        48748
#        60047
#        81461
#        92002
#        106748
#        117664
#        141328
#        152783
#        173701
#        189677
#        207244
#        222331
#
# Disc length: 3099 seconds
#
# Revision: 0
# Processed by: cddbd v1.5.2PL0 Copyright (c) Steve Scherf et al.
# Submitted via: ExactAudioCopyFreeDBPlugin 1.0
#
DISCID=d80c1910
DTITLE=Bar J Wranglers - For God And Country
DYEAR=2015
DGENRE=Western
TTITLE0=Various Artist - Patriotic Medley
TTITLE1=The Old Tear Stained Altar
TTITLE2=Will The Circle Be Unbroken - I'll Fly Away
TTITLE3=Father To Father
TTITLE4=This Old House
TTITLE5=Trouble In The Amen Corner
TTITLE6=Will There Be Sagebrush In Heaven
TTITLE7=Three Wooden Crosses
TTITLE8=Cowboy Camp Meeting
TTITLE9=Prayer Of A Soldier
TTITLE10=On The Jericho Road
TTITLE11=Gospel Medley
TTITLE12=I Believe
TTITLE13=Long Black Train
TTITLE14=Ragged Old Flag
TTITLE15=In That Great Gettin'-Up Morning
EXTD=
EXTT0=
EXTT1=
EXTT2=
EXTT3=
EXTT4=
EXTT5=
EXTT6=
EXTT7=
EXTT8=
EXTT9=
EXTT10=
EXTT11=
EXTT12=
EXTT13=
EXTT14=
EXTT15=
PLAYORDER=
